<svg width="40" height="35" viewBox="0 0 40 35" fill="none" xmlns="http://www.w3.org/2000/svg">
<path d="M35.4371 3.94275H29.257L25.7066 0.036499H14.0038L10.4535 3.94275H4.27339C2.16951 3.94275 0.328613 5.63546 0.328613 7.849V31.0261C0.328613 33.1094 2.03802 34.9323 4.27339 34.9323H35.4371C37.541 34.9323 39.3819 33.2396 39.3819 31.0261V7.71879C39.3819 5.63546 37.6725 3.94275 35.4371 3.94275ZM35.4371 30.8959H4.40488V7.71879H12.2944L15.8447 3.81254H24.1287L27.5475 7.71879H35.4371V30.8959ZM19.921 9.67191C14.5298 9.67191 10.1905 13.9688 10.1905 19.3073C10.1905 24.6459 14.5298 28.9427 19.921 28.9427C25.3122 28.9427 29.6514 24.6459 29.6514 19.3073C29.6514 13.9688 25.3122 9.67191 19.921 9.67191ZM19.921 25.1667C16.7652 25.1667 14.1353 22.5625 14.1353 19.4375C14.1353 16.3125 16.7652 13.7084 19.921 13.7084C23.0768 13.7084 25.7066 16.3125 25.7066 19.4375C25.7066 22.5625 23.0768 25.1667 19.921 25.1667Z" fill="#911C1C"/>
</svg>

